<svg xmlns="http://www.w3.org/2000/svg" xmlns:svg="http://www.w3.org/2000/svg" xmlns:xlink="http://www.w3.org/1999/xlink" id="svg2" width="455" height="461" version="1.0"><defs id="defs4"><linearGradient id="linearGradient3235"><stop id="stop3237" offset="0" style="stop-color:#fce94f;stop-opacity:1"/><stop style="stop-color:#fce94f;stop-opacity:1" id="stop3239" offset=".5"/><stop id="stop3241" offset=".75" style="stop-color:#edd400;stop-opacity:1"/><stop id="stop3243" offset="1" style="stop-color:#c4a000;stop-opacity:1"/></linearGradient><linearGradient id="linearGradient19744"><stop id="stop19746" offset="0" style="stop-color:#fff;stop-opacity:1"/><stop style="stop-color:#edd400;stop-opacity:1" id="stop19748" offset=".786"/><stop id="stop19750" offset="1" style="stop-color:#fff;stop-opacity:1"/></linearGradient><linearGradient id="linearGradient14664"><stop style="stop-color:#fff;stop-opacity:1" id="stop14666" offset="0"/><stop style="stop-color:#eeeeec;stop-opacity:1" id="stop14668" offset="1"/></linearGradient><linearGradient id="linearGradient12294"><stop id="stop12296" offset="0" style="stop-color:#fef8c4;stop-opacity:1"/><stop id="stop12298" offset="1" style="stop-color:#edd400;stop-opacity:1"/></linearGradient><linearGradient id="linearGradient11853"><stop style="stop-color:#fff;stop-opacity:1" id="stop11855" offset="0"/><stop style="stop-color:#fff;stop-opacity:0" id="stop11857" offset="1"/></linearGradient><linearGradient id="linearGradient8285"><stop style="stop-color:#ff6c6c;stop-opacity:1" id="stop8287" offset="0"/><stop style="stop-color:#c00;stop-opacity:1" id="stop8289" offset="1"/></linearGradient><linearGradient id="linearGradient7499"><stop id="stop7501" offset="0" style="stop-color:#fff5ac;stop-opacity:1"/><stop id="stop7503" offset="1" style="stop-color:#edd400;stop-opacity:1"/></linearGradient><linearGradient id="linearGradient7106"><stop style="stop-color:#000;stop-opacity:1" id="stop7108" offset="0"/><stop style="stop-color:#000;stop-opacity:0" id="stop7110" offset="1"/></linearGradient><linearGradient id="linearGradient6328"><stop style="stop-color:#fff;stop-opacity:1" id="stop6330" offset="0"/><stop style="stop-color:#fff;stop-opacity:0" id="stop6332" offset="1"/></linearGradient><linearGradient id="linearGradient5539"><stop style="stop-color:#000;stop-opacity:1" id="stop5541" offset="0"/><stop style="stop-color:#000;stop-opacity:0" id="stop5543" offset="1"/></linearGradient><linearGradient id="linearGradient3570"><stop style="stop-color:#fff;stop-opacity:1" id="stop3572" offset="0"/><stop style="stop-color:#fce94f;stop-opacity:1" id="stop3574" offset="1"/></linearGradient><linearGradient id="linearGradient2790"><stop style="stop-color:#fff;stop-opacity:1" id="stop2792" offset="0"/><stop style="stop-color:#fce94f;stop-opacity:1" id="stop2794" offset="1"/></linearGradient><linearGradient id="linearGradient2188"><stop style="stop-color:#c4a000;stop-opacity:1" id="stop2190" offset="0"/><stop id="stop3626" offset=".206" style="stop-color:#edd400;stop-opacity:1"/><stop id="stop2848" offset=".5" style="stop-color:#fce94f;stop-opacity:1"/><stop style="stop-color:#edd400;stop-opacity:1" id="stop2850" offset=".75"/><stop style="stop-color:#c4a000;stop-opacity:1" id="stop2192" offset="1"/></linearGradient><radialGradient id="radialGradient3185" cx="23.078" cy="12.744" r="3.5" fx="23.078" fy="12.744" gradientTransform="matrix(10.422384,-25.37626,-17.770703,-19.230146,184.20688,542.14649)" gradientUnits="userSpaceOnUse" xlink:href="#linearGradient2790"/><linearGradient id="linearGradient4751" x1="21" x2="42.231" y1="37.678" y2="54.18" gradientTransform="matrix(21.32484,0,0,12.236307,-293.77454,-489.99344)" gradientUnits="userSpaceOnUse" xlink:href="#linearGradient12294"/><radialGradient id="radialGradient5545" cx="23.5" cy="19.5" r="14.5" fx="23.5" fy="19.5" gradientTransform="matrix(2.9413569,0,0,1.3262169,153.63857,-256.72915)" gradientUnits="userSpaceOnUse" xlink:href="#linearGradient5539"/><radialGradient id="radialGradient5934" cx="21.625" cy="16.75" r="5.5" fx="21.625" fy="16.75" gradientTransform="matrix(6.6343952,0,0,-6.9927807,62.113333,-161.8142)" gradientUnits="userSpaceOnUse" xlink:href="#linearGradient7499"/><radialGradient id="radialGradient6717" cx="10.451" cy="27.331" r="7" fx="10.451" fy="27.331" gradientTransform="matrix(24.878977,26.387222,-4.102955,21.124369,-47.12537,-1028.3221)" gradientUnits="userSpaceOnUse" xlink:href="#linearGradient6328"/><radialGradient id="radialGradient7112" cx="24" cy="38.5" r="6" fx="24" fy="38.5" gradientTransform="matrix(27.643311,0,0,10.416327,-440.679,-405.94232)" gradientUnits="userSpaceOnUse" xlink:href="#linearGradient7106"/><radialGradient id="radialGradient7116" cx="23.5" cy="19.5" r="14.5" fx="23.5" fy="19.5" gradientTransform="matrix(5.229079,0,0,2.3208799,104.61593,-59.785909)" gradientUnits="userSpaceOnUse" xlink:href="#linearGradient5539"/><radialGradient id="radialGradient11865" cx="23" cy="28.5" r="3" fx="23" fy="28.5" gradientTransform="matrix(5.6866217,0,0,11.217587,1.9299281,-460.10747)" gradientUnits="userSpaceOnUse" xlink:href="#linearGradient8285"/><linearGradient id="linearGradient11867" x1="21" x2="25" y1="26" y2="31" gradientTransform="matrix(3.1592341,0,0,8.0125614,60.059831,-364.75791)" gradientUnits="userSpaceOnUse" xlink:href="#linearGradient11853"/><radialGradient id="radialGradient14259" cx="23" cy="28.5" r="3" fx="23" fy="28.5" gradientTransform="matrix(5.6866236,0,0,11.217587,172.52858,-459.22599)" gradientUnits="userSpaceOnUse" xlink:href="#linearGradient8285"/><linearGradient id="linearGradient14261" x1="21" x2="25" y1="26" y2="31" gradientTransform="matrix(3.1592341,0,0,8.0125614,230.65854,-363.87645)" gradientUnits="userSpaceOnUse" xlink:href="#linearGradient11853"/><linearGradient id="linearGradient17109" x1="12" x2="44.565" y1="14" y2="47.688" gradientTransform="matrix(8.7194895,0,0,8.5467323,0.0343623,-388.44829)" gradientUnits="userSpaceOnUse" xlink:href="#linearGradient3570"/><radialGradient id="radialGradient17172" cx="23" cy="28.5" r="3" fx="23" fy="28.5" gradientTransform="matrix(9.4777013,0,0,14.956778,0.0344444,-536.94774)" gradientUnits="userSpaceOnUse" xlink:href="#linearGradient8285"/><linearGradient id="linearGradient17174" x1="21" x2="25" y1="26" y2="31" gradientTransform="matrix(5.26539,0,0,10.683412,96.917619,-409.81505)" gradientUnits="userSpaceOnUse" xlink:href="#linearGradient11853"/><radialGradient id="radialGradient17706" cx="13.071" cy="21.094" r="15.5" fx="13.071" fy="21.094" gradientTransform="matrix(13.53957,21.717254,-17.56228,15.545024,316.08578,-833.07337)" gradientUnits="userSpaceOnUse" xlink:href="#linearGradient2790"/><radialGradient id="radialGradient18099" cx="3.5" cy="16.969" r="3.048" fx="3.5" fy="16.969" gradientTransform="matrix(0.5290677,1.2697623,-1.3124555,0.7874732,23.91948,-1.0068978)" gradientUnits="userSpaceOnUse" xlink:href="#linearGradient14664"/><radialGradient id="radialGradient18124" cx="3.5" cy="16.969" r="3.048" fx="3.5" fy="16.969" gradientTransform="matrix(0.5290677,1.2697623,-1.3124555,0.7874732,23.91948,-1.0068978)" gradientUnits="userSpaceOnUse" xlink:href="#linearGradient14664"/><radialGradient id="radialGradient18126" cx="3.5" cy="16.969" r="3.048" fx="3.5" fy="16.969" gradientTransform="matrix(0.5290677,1.2697623,-1.3124555,0.7874732,23.91948,-1.0068978)" gradientUnits="userSpaceOnUse" xlink:href="#linearGradient14664"/><radialGradient id="radialGradient18128" cx="3.5" cy="16.969" r="3.048" fx="3.5" fy="16.969" gradientTransform="matrix(0.5290677,1.2697623,-1.3124555,0.7874732,23.91948,-1.0068978)" gradientUnits="userSpaceOnUse" xlink:href="#linearGradient14664"/><linearGradient id="linearGradient19742" x1="40.036" x2="41.661" y1="12.359" y2="35.395" gradientTransform="matrix(9.477706,0,0,9.6150736,0.03435381,-403.93924)" gradientUnits="userSpaceOnUse" xlink:href="#linearGradient19744"/><radialGradient id="radialGradient19774" cx="13.819" cy="8.88" r="14.5" fx="13.819" fy="8.88" gradientTransform="matrix(3.3808694,4.4207235,-5.3604532,7.0091668,154.19039,-360.60979)" gradientUnits="userSpaceOnUse" xlink:href="#linearGradient3570"/><linearGradient id="linearGradient2846" x1="3" x2="39" y1="27" y2="28" gradientTransform="matrix(9.477706,0,0,9.6150736,0.03435381,-403.93924)" gradientUnits="userSpaceOnUse" xlink:href="#linearGradient2188"/><linearGradient id="linearGradient3233" x1="8" x2="38" y1="39" y2="39" gradientTransform="matrix(9.477706,0,0,9.6150736,0.03435381,-403.93924)" gradientUnits="userSpaceOnUse" xlink:href="#linearGradient3235"/></defs><metadata id="metadata7"/><g id="layer1" transform="translate(0,413)"><path style="opacity:.6;color:#000;fill:url(#radialGradient7112);fill-opacity:1;fill-rule:evenodd;stroke:none;stroke-width:.48304588px;marker:none;visibility:visible;display:inline;overflow:visible;enable-background:accumulate" id="path6721" d="m 388.62033,-4.9136791 c 0,34.4988851 -74.30523,62.4979681 -165.85988,62.4979681 -91.55464,0 -165.85986,-27.999083 -165.85986,-62.4979681 0,-34.4988759 74.30522,-62.4979689 165.85986,-62.4979689 91.55465,0 165.85988,27.999093 165.85988,62.4979689 z"/><path style="color:#000;fill:url(#linearGradient3233);fill-opacity:1;fill-rule:evenodd;stroke:#c4a000;stroke-width:9.54614162px;stroke-linecap:butt;stroke-linejoin:miter;stroke-miterlimit:4;stroke-opacity:1;stroke-dashoffset:0;marker:none;visibility:visible;display:inline;overflow:visible;enable-background:accumulate" id="path3580" d="m 355.44832,-14.528744 c 0,26.5376 -61.56716,48.075365 -137.42673,48.075365 -75.85955,0 -137.42674,-21.537765 -137.42674,-48.075365 0,-26.537602 61.56719,-48.075366 137.42674,-48.075366 75.85957,0 137.42673,21.537764 137.42673,48.075366 z"/><path style="opacity:.2;color:#000;fill:url(#radialGradient7116);fill-opacity:1;fill-rule:evenodd;stroke:none;stroke-width:1px;marker:none;visibility:visible;display:inline;overflow:visible;enable-background:accumulate" id="path7114" d="m 303.32093,-14.528744 c 0,18.5763267 -33.96809,33.652764 -75.82163,33.652764 -41.85357,0 -75.82164,-15.0764373 -75.82164,-33.652764 0,-18.576327 33.96807,-33.652763 75.82164,-33.652763 41.85354,0 75.82163,15.076436 75.82163,33.652763 z"/><path style="color:#000;fill:none;stroke:url(#linearGradient4751);stroke-width:9.54614258px;stroke-linecap:butt;stroke-linejoin:miter;stroke-miterlimit:4;stroke-opacity:1;stroke-dashoffset:0;marker:none;visibility:visible;display:inline;overflow:visible;enable-background:accumulate" id="path4362" d="m 345.97064,-18.895541 c 0,23.6405541 -57.32119,42.827078 -127.94902,42.827078 -70.62787,0 -127.94906,-19.1865239 -127.94906,-42.827078 0,-23.640555 57.32119,-42.827087 127.94906,-42.827087 70.62783,0 127.94902,19.186532 127.94902,42.827087 z"/><path style="color:#000;fill:#c4a000;fill-opacity:1;fill-rule:evenodd;stroke:none;stroke-width:1.38169873px;marker:none;visibility:visible;display:inline;overflow:visible;enable-background:accumulate" id="path3578" d="m 284.36554,-28.951367 c 0,15.922579 -29.72208,28.84523564 -66.34394,28.84523564 -36.62186,0 -66.34394,-12.92265664 -66.34394,-28.84523564 0,-15.922548 29.72208,-28.845205 66.34394,-28.845205 36.62186,0 66.34394,12.922657 66.34394,28.845205 z"/><path style="color:#000;fill:url(#linearGradient2846);fill-opacity:1;fill-rule:evenodd;stroke:#c4a000;stroke-width:9.54614162px;stroke-linecap:butt;stroke-linejoin:miter;stroke-miterlimit:4;stroke-opacity:1;stroke-dashoffset:0;marker:none;visibility:visible;display:inline;overflow:visible;enable-background:accumulate" id="path2196" d="m 214.9537,-274.13574 c -72.04096,0 -130.49884,30.09188 -130.498843,67.24752 0,9.77123 -1.447693,30.54172 1.056672,54.88364 -23.583783,-9.21947 -23.557824,-29.9444 -25.624267,-54.58208 l -26.41677,0 c -0.07393,1.67869 -0.264162,3.42804 -0.264162,5.12649 8.697501,108.134135 92.17397,173.227489 181.74737,177.316341 36.02047,0 80.77435,-9.915573 108.57292,-58.200777 27.7986,-48.285174 21.92591,-105.965814 21.92592,-124.543614 0,-37.15563 -58.4579,-67.24752 -130.49884,-67.24752 z"/><path style="color:#000;fill:#c4a000;fill-opacity:1;fill-rule:evenodd;stroke:#edd400;stroke-width:.68313003px;stroke-linecap:butt;stroke-linejoin:miter;stroke-miterlimit:4;stroke-opacity:1;stroke-dasharray:none;stroke-dashoffset:0;marker:none;visibility:visible;display:inline;overflow:visible;enable-background:accumulate" id="path3628" d="m 26,17.5 a 3.5,0.5 0 1 1 -7,0 3.5,0.5 0 1 1 7,0 z" transform="matrix(6.76979,0,0,28.845227,65.70133,-735.65937)"/><path style="opacity:.6;color:#000;fill:url(#radialGradient19774);fill-opacity:1;fill-rule:evenodd;stroke:none;stroke-width:.91345936px;marker:none;visibility:visible;display:inline;overflow:visible;enable-background:accumulate" id="path3187" d="m 180.11077,-221.25284 c 0,26.53763 108.04586,48.07537 42.64967,48.07537 -65.39617,0 -118.47132,-21.53774 -118.47132,-48.07537 0,-26.5376 53.07515,-48.07537 118.47132,-48.07537 65.39619,0 -42.64967,21.53777 -42.64967,48.07537 z"/><path style="color:#000;fill:none;stroke:url(#linearGradient17109);stroke-width:9.54614353;stroke-linecap:butt;stroke-linejoin:miter;stroke-miterlimit:4;stroke-opacity:1;stroke-dasharray:none;stroke-dashoffset:0;marker:none;visibility:visible;display:inline;overflow:visible;enable-background:accumulate" id="path16339" d="m 327.01519,-226.06036 c 0,21.23006 -48.82911,38.46028 -108.99359,38.46028 -60.16447,0 -108.99364,-17.23022 -108.99364,-38.46028 0,-21.2301 48.82917,-38.46031 108.99364,-38.46031 60.16448,0 108.99359,17.23021 108.99359,38.46031 z"/><path style="opacity:.6;color:#000;fill:url(#radialGradient6717);fill-opacity:1;fill-rule:evenodd;stroke:none;stroke-width:1px;marker:none;visibility:visible;display:inline;overflow:visible;enable-background:accumulate" id="path5939" d="m 100.73499,-221.25284 c 0,8.80293 -7.269521,55.37898 -5.923573,76.9206 0.673012,10.77081 -46.390809,-39.53996 -38.503183,-48.07538 17.770701,-19.23015 -8.885348,0 -8.885348,9.61509 0,77.5192 90.225184,125.688796 103.234944,133.774523 13.00977,8.085718 26.71654,10.451576 38.93064,10.451576 0,0 37.91084,-144.226099 37.91084,-144.226099 -42.15501,0 -115.99225,-15.55366 -126.76432,-38.46031 z"/><path id="path15948" d="m 336.49293,-221.46086 c 0,23.99868 -53.07516,43.47587 -118.47133,43.47587 -65.39616,0 -118.471321,-19.47719 -118.471321,-43.47587 0,-23.99866 53.075161,-43.47583 118.471321,-43.47583 65.39617,0 118.47133,19.47717 118.47133,43.47583 z" style="color:#000;fill:none;stroke:#c4a000;stroke-width:9.54614449;stroke-linecap:butt;stroke-linejoin:miter;stroke-miterlimit:4;stroke-opacity:1;stroke-dasharray:none;stroke-dashoffset:0;marker:none;visibility:visible;display:inline;overflow:visible;enable-background:accumulate"/><path style="opacity:.1;color:#000;fill:url(#radialGradient5545);fill-opacity:1;fill-rule:evenodd;stroke:none;stroke-width:1px;marker:none;visibility:visible;display:inline;overflow:visible;enable-background:accumulate" id="path5154" d="m 265.41014,-230.8679 c 0,10.61503 -19.10706,19.23013 -42.6497,19.23013 -23.54261,0 -42.64966,-8.6151 -42.64966,-19.23013 0,-10.61504 19.10705,-19.23014 42.64966,-19.23014 23.54264,0 42.6497,8.6151 42.6497,19.23014 z"/><path style="color:#000;fill:none;stroke:url(#radialGradient17706);stroke-width:9.54614258px;stroke-linecap:butt;stroke-linejoin:miter;stroke-miterlimit:4;stroke-opacity:1;stroke-dashoffset:0;marker:none;visibility:visible;display:inline;overflow:visible;enable-background:accumulate" id="path2206" d="m 215.42465,-264.52067 c -66.56907,0 -121.302652,27.0351 -121.302652,61.33904 0,0 1.706746,61.25317 1.706746,61.25317 -24.60268,-4.07783 -39.05409,-20.73251 -40.358777,-54.08481 -8.486806,-3.08414 -9.247064,1.07204 -12.785936,2.70425 15.420683,98.755019 89.609839,155.555882 172.740619,159.550146 33.28453,0 74.77375,-9.205033 100.46092,-53.784316 25.68713,-44.57928 20.09219,-97.62802 20.09218,-114.77996 0,-34.30393 -53.98401,-62.19752 -120.5531,-62.19752 z"/><path style="color:#000;fill:url(#radialGradient5934);fill-opacity:1;fill-rule:evenodd;stroke:#c4a000;stroke-width:9.54614449px;stroke-linecap:butt;stroke-linejoin:miter;stroke-miterlimit:4;stroke-opacity:1;stroke-dashoffset:0;marker:none;visibility:visible;display:inline;overflow:visible;enable-background:accumulate" id="path2201" d="m 251.19357,-269.3282 c 0,-13.2688 -14.86105,-24.03767 -33.17196,-24.03767 -18.31093,0 -33.17198,10.76887 -33.17198,24.03767 0,13.26879 14.86105,43.26786 33.17198,43.26786 18.31091,0 33.17196,-29.99907 33.17196,-43.26786 z"/><path style="color:#000;fill:none;stroke:url(#radialGradient3185);stroke-width:9.54614353px;stroke-linecap:butt;stroke-linejoin:miter;stroke-miterlimit:4;stroke-opacity:1;stroke-dashoffset:0;marker:none;visibility:visible;display:inline;overflow:visible;enable-background:accumulate" id="path2204" d="m 241.71588,-266.58103 c 0,-9.47772 -10.61506,-17.16979 -23.69428,-17.16979 -13.07921,0 -23.69425,7.69207 -23.69425,17.16979 0,9.47771 10.61504,30.90559 23.69425,30.90559 13.07922,0 23.69428,-21.42788 23.69428,-30.90559 z"/><path style="fill:url(#radialGradient11865);fill-opacity:1;stroke:#a40000;stroke-width:9.54614353;stroke-linecap:round;stroke-linejoin:miter;stroke-miterlimit:4;stroke-opacity:1;stroke-dashoffset:0" id="path11861" d="m 132.72224,-169.25141 -14.21654,28.84523 14.21654,28.84521 14.21656,-28.84521 -14.21656,-28.84523 z"/><path style="fill:url(#linearGradient11867);fill-opacity:1;stroke:none" id="path11863" d="m 132.72225,-164.44387 -9.47772,24.03769 9.47772,24.03768 0,-48.07537 z"/><path style="fill:url(#radialGradient14259);fill-opacity:1;stroke:#a40000;stroke-width:9.54614353;stroke-linecap:round;stroke-linejoin:miter;stroke-miterlimit:4;stroke-opacity:1;stroke-dashoffset:0" id="path14255" d="m 303.32095,-168.36994 -14.21656,28.84523 14.21656,28.84522 14.21656,-28.84522 -14.21656,-28.84523 z"/><path style="fill:url(#linearGradient14261);fill-opacity:1;stroke:none" id="path14257" d="m 303.32095,-163.5624 -9.4777,24.03769 9.4777,24.03767 0,-48.07536 z"/><path id="path17168" d="m 218.02159,-149.13976 -23.69425,38.46027 23.69425,38.460305 23.69427,-38.460305 -23.69427,-38.46027 z" style="fill:url(#radialGradient17172);fill-opacity:1;stroke:#a40000;stroke-width:9.54614258;stroke-linecap:round;stroke-linejoin:miter;stroke-miterlimit:4;stroke-opacity:1;stroke-dashoffset:0"/><path id="path17170" d="m 218.02161,-142.72974 -15.79616,32.05026 15.79616,32.050228 0,-64.100488 z" style="fill:url(#linearGradient17174);fill-opacity:1;stroke:none"/><path style="color:#000;fill:#2e3436;fill-opacity:1;fill-rule:evenodd;stroke:#c4a000;stroke-width:1.22474468px;stroke-linecap:butt;stroke-linejoin:miter;stroke-miterlimit:4;stroke-opacity:1;stroke-dasharray:none;stroke-dashoffset:0;marker:none;visibility:visible;display:inline;overflow:visible;enable-background:accumulate" id="path17203" d="m 5,20.5 a 2,1.5 0 1 1 -4,0 2,1.5 0 1 1 4,0 z" transform="matrix(9.4777063,0,0,6.4100516,14.250913,-338.23628)"/><path id="path18109" d="m 7,18 a 2.5,3 0 1 1 -5,0 2.5,3 0 1 1 5,0 z" transform="matrix(17.059871,0,0,14.422611,-15.129977,-610.66333)" style="color:#000;fill:url(#radialGradient18124);fill-opacity:1;fill-rule:evenodd;stroke:none;stroke-width:.54772246px;marker:none;visibility:visible;display:inline;overflow:visible;enable-background:accumulate"/><path style="color:#000;fill:url(#radialGradient18126);fill-opacity:1;fill-rule:evenodd;stroke:none;stroke-width:.6846531px;marker:none;visibility:visible;display:inline;overflow:visible;enable-background:accumulate" id="path18105" d="m 7,18 a 2.5,3 0 1 1 -5,0 2.5,3 0 1 1 5,0 z" transform="matrix(13.268789,0,0,11.217585,-17.025518,-504.89749)"/><path id="path18101" d="m 7,18 a 2.5,3 0 1 1 -5,0 2.5,3 0 1 1 5,0 z" transform="matrix(9.4777063,0,0,8.0125624,9.5120601,-408.7468)" style="color:#000;fill:url(#radialGradient18128);fill-opacity:1;fill-rule:evenodd;stroke:none;stroke-width:.91287076px;marker:none;visibility:visible;display:inline;overflow:visible;enable-background:accumulate"/><path style="color:#000;fill:url(#radialGradient18099);fill-opacity:1;fill-rule:evenodd;stroke:none;stroke-width:1.09544492px;marker:none;visibility:visible;display:inline;overflow:visible;enable-background:accumulate" id="path17708" d="m 7,18 a 2.5,3 0 1 1 -5,0 2.5,3 0 1 1 5,0 z" transform="matrix(7.5821651,0,0,6.4100496,3.8254363,-346.2488)"/><path style="color:#000;fill:none;stroke:#babdb6;stroke-width:9.54614353px;stroke-linecap:butt;stroke-linejoin:miter;stroke-miterlimit:4;stroke-opacity:1;stroke-dasharray:none;stroke-dashoffset:0;marker:none;visibility:visible;display:inline;overflow:visible;enable-background:accumulate" id="path18113" d="m 61.639444,-399.1317 c -26.158468,0 -47.388531,21.53776 -47.388531,48.07536 0,6.78144 1.645836,13.07721 4.146497,18.92968 -8.237983,7.05681 -13.6242029,17.35934 -13.6242029,29.1457 0,14.45199 7.9209389,26.78083 19.5477689,33.35229 -0.305757,1.69392 -0.592356,3.3249 -0.592356,5.108 0,4.55011 1.109614,8.7912 2.961783,12.6198 -7.3859,4.07207 -12.43949,11.91064 -12.43949,21.03297 0,13.26879 10.615031,24.03767 23.694265,24.03767 13.079236,0 23.694266,-10.76888 23.694266,-24.03767 0,-2.2023 -0.34096,-4.28314 -0.888534,-6.3099 11.434284,-3.737 19.843947,-14.5053 19.843947,-27.34287 0,-6.66171 -2.180451,-12.843 -5.923566,-17.7278 3.737486,-5.9585 5.923566,-13.15153 5.923566,-20.73249 0,-1.33269 -0.461729,-2.60823 -0.592357,-3.90612 17.006559,-7.30146 29.02548,-24.26606 29.02548,-44.16926 0,-26.5376 -21.230067,-48.07536 -47.388536,-48.07536 z"/><path style="color:#000;fill:none;stroke:#fff;stroke-width:7.9551177px;stroke-linecap:butt;stroke-linejoin:miter;stroke-miterlimit:4;stroke-opacity:1;stroke-dasharray:none;stroke-dashoffset:0;marker:none;visibility:visible;display:inline;overflow:visible;enable-background:accumulate" id="path18130" d="m 61.639444,-390.11758 c -21.18836,0 -38.503181,17.56578 -38.503182,39.06124 0,8.0608 2.671951,15.41858 6.812102,21.63391 -9.650085,4.78644 -16.289808,14.81636 -16.289808,26.44147 0,13.64683 9.198008,24.90969 21.621019,28.24427 -1.770195,3.00218 -2.961784,6.46568 -2.961784,10.21602 0,11.05734 8.944586,20.13157 19.843947,20.13157 10.899363,0 19.843951,-9.07423 19.843949,-20.13157 0,-7.307 -4.008159,-13.62788 -9.773885,-17.12685 5.709301,-5.3785 9.477704,-12.8119 9.477705,-21.33344 0,-3.58949 -0.616316,-7.03433 -1.777069,-10.21602 17.159442,-3.88438 30.210182,-19.28594 30.210182,-37.85936 0,-21.49546 -17.314817,-39.06124 -38.503176,-39.06124 z m -23.694266,143.92565 c -8.37071,0 -15.105095,6.83198 -15.105094,15.32403 0,8.49202 6.734384,15.32403 15.105094,15.32402 8.370712,0 15.105095,-6.83201 15.105096,-15.32402 0,-8.49204 -6.734384,-15.32403 -15.105096,-15.32403 z"/><path style="fill:#edd400;fill-opacity:1;stroke:#c4a000;stroke-width:9.54614258;stroke-linecap:round;stroke-linejoin:round;stroke-miterlimit:4;stroke-opacity:1;stroke-dashoffset:0" id="rect19335" d="m 388.62031,-302.98096 c -34.12921,0 -56.86623,27.8741 -56.86623,62.49798 l 9.4777,19.23014 c -2e-5,-28.51378 9.03226,-52.8829 37.91082,-52.8829 28.87855,0 52.12739,22.86676 52.12739,51.38055 l 0,87.13659 c -3.58423,45.288009 -69.99671,54.229299 -104.84712,60.995645 -4.24262,6.298784 -8.78681,11.812472 -13.62421,16.826383 46.18742,-12.696305 132.52895,-13.335301 137.42673,-76.920598 l 0,-105.76581 c 0,-34.62388 -27.47586,-62.49798 -61.60508,-62.49798 z"/><path style="opacity:.8;fill:none;stroke:url(#linearGradient19742);stroke-width:9.54614449;stroke-linecap:round;stroke-linejoin:round;stroke-miterlimit:4;stroke-opacity:1;stroke-dasharray:none;stroke-dashoffset:0" id="path19353" d="m 341.23178,-250.09805 c 28.43312,-76.9206 96.30026,-33.99616 98.83893,1.20187 l -0.84617,120.18842 c -5e-5,29.188631 -50.60423,51.681037 -116.94818,61.296112"/></g></svg>